<svg width="100" height="100" viewBox="0 0 100 100" fill="none" xmlns="http://www.w3.org/2000/svg">
<path d="M24.6445 17.6942H75.3556C81.3532 17.6942 86.2223 22.5635 86.2223 28.5609V79.408C86.2223 85.4053 81.3532 90.2747 75.3556 90.2747H24.6445C18.6469 90.2747 13.7778 85.4053 13.7778 79.408V28.5609C13.7778 22.5635 18.6469 17.6942 24.6445 17.6942Z" fill="#E0AB20"/>
<path d="M24.6445 3.99777H75.3556C81.3532 3.99777 86.2223 8.86688 86.2223 14.8644V65.7113C86.2223 71.7089 81.3532 76.578 75.3556 76.578H24.6445C18.6469 76.578 13.7778 71.7089 13.7778 65.7113V14.8644C13.7778 8.86688 18.6469 3.99777 24.6445 3.99777Z" fill="#E0AB20"/>
<path d="M76.0801 90.2747H22.5052C17.6885 90.2747 13.7778 86.364 13.7778 81.5473C13.7778 76.7307 17.6885 72.82 22.5052 72.82H86.2223V80.1324C86.2223 85.73 81.6776 90.2747 76.0801 90.2747Z" fill="#F2F0E7"/>
<path d="M31.1646 81.5473V96.0022L39.8579 90.2747L47.8268 96.0022V81.5473H31.1646Z" fill="#F95C50"/>
<path d="M77.529 3.99777H69.5601V72.82H77.529V3.99777Z" fill="#F95C50"/>
<path d="M23.5918 80.0644H81.5133C82.1131 80.0644 82.6 80.5513 82.6 81.1511C82.6 81.7509 82.1131 82.2378 81.5133 82.2378H23.5918C22.992 82.2378 22.5051 81.7509 22.5051 81.1511C22.5051 80.5513 22.992 80.0644 23.5918 80.0644Z" fill="#D0CCCC"/>
</svg>
